<svg width="0" height="0" class="hidden">
  <symbol xmlns="http://www.w3.org/2000/svg" viewBox="0 0 31 31" id="arrow_left">
    <path fill-rule="evenodd" fill="#FC635E" d="M15.495 30.999c8.547 0 15.5-6.953 15.5-15.499S24.042.001 15.495.001C6.946.001-.01 6.954-.01 15.5s6.956 15.499 15.505 15.499zm0-29.577c7.763 0 14.078 6.316 14.078 14.078 0 7.763-6.315 14.077-14.078 14.077-7.765 0-14.083-6.314-14.083-14.077 0-7.762 6.318-14.078 14.083-14.078zm6.269 24.222l-6.068-10.199 6.068-9.883-17.397 10.04 17.397 10.042z"></path>
  </symbol>
  <symbol xmlns="http://www.w3.org/2000/svg" viewBox="0 0 31 31" id="arrow_right">
    <path fill-rule="evenodd" fill="#FC635E" d="M15.504 30.999c-8.546 0-15.5-6.953-15.5-15.499S6.958.001 15.504.001c8.55 0 15.506 6.953 15.506 15.499s-6.956 15.499-15.506 15.499zm0-29.577C7.742 1.422 1.427 7.738 1.427 15.5c0 7.763 6.315 14.077 14.077 14.077 7.766 0 14.083-6.314 14.083-14.077 0-7.762-6.317-14.078-14.083-14.078zM9.235 25.644l6.069-10.199-6.069-9.883 17.398 10.04L9.235 25.644z"></path>
  </symbol>
</svg>