<svg id="Группа_1" data-name="Группа 1" xmlns="http://www.w3.org/2000/svg" width="100.375" height="116" viewBox="0 0 100.375 116">
  <defs>
    <style>
      .cls-1 {
        fill: #fe8682;
      }

      .cls-1, .cls-2, .cls-3 {
        fill-rule: evenodd;
      }

      .cls-2 {
        fill: #fc635e;
      }

      .cls-3 {
        fill: #fff;
      }
    </style>
  </defs>
  <path id="Фигура_3" data-name="Фигура 3" class="cls-1" d="M703.4,1040l50.184-29,50.185,29v58l-50.185,29L703.4,1098v-58Z" transform="translate(-703.406 -1011)"/>
  <path id="Фигура_3_копия" data-name="Фигура 3 копия" class="cls-2" d="M708.417,1043l45.165-26,45.166,26v52l-45.166,26-45.165-26v-52Z" transform="translate(-703.406 -1011)"/>
  <path id="Forma_1" data-name="Forma 1" class="cls-3" d="M768.11,1050H738.9a3.9,3.9,0,0,0-3.895,3.89v29.22A3.91,3.91,0,0,0,738.9,1087H768.11a3.909,3.909,0,0,0,3.89-3.89v-29.22A3.9,3.9,0,0,0,768.11,1050Zm-28.885,5.27h28.549v19.47H739.225v-19.47Zm30.1,26.49H749.391a3.323,3.323,0,0,1-6.469,0h-5.246v-1.54h5.242a3.325,3.325,0,0,1,6.477,0h19.931v1.54Zm-12.419-23.67h3.981v13.36h-3.981v-13.36Zm-10.986,5.14H749.9v8.22h-3.983v-8.22Zm5.493-2.18H755.4v10.4h-3.984v-10.4Z" transform="translate(-703.406 -1011)"/>
</svg>
