<svg width="0" height="0" class="hidden">
  <symbol xmlns="http://www.w3.org/2000/svg" viewBox="0 0 100.188 116" id="icon1">
    <g fill-rule="evenodd">
      <path d="M-.007 29l50.1-29 50.1 29v58l-50.1 29-50.1-29V29z" fill="#fe8682"></path>
      <path d="M5.004 32L50.097 6 95.19 32v52l-45.093 26L5.004 84V32z" fill="#fc635e"></path>
    </g>
    <path d="M59.1 58.77a30.025 30.025 0 0 0 4.973-7.96 29.363 29.363 0 0 0 1.037-2.97c.11-.41.228-.91.336-1.46.025-.12.042-.23.065-.35.026-.15.053-.3.077-.46a20.322 20.322 0 0 0 .257-4.22 13.466 13.466 0 0 1-.063-1.73.793.793 0 0 0 .085-.1.609.609 0 0 0 .216-.62s-.026-.02-.058-.05a1.2 1.2 0 0 1 .053-.52c.062-.27-.126-.41-.421-.32a1.565 1.565 0 0 1-.6.11l-.07-.05a.65.65 0 0 0-.564.36.931.931 0 0 1-.059.08c-.032.05-.805.13-1.712.31a20.578 20.578 0 0 0-6.779 2.72 27.043 27.043 0 0 0-8.48 8.44 3.067 3.067 0 0 1-2.5 1.29 11.835 11.835 0 0 0-11.735 7.52 1.041 1.041 0 0 0 1.121 1.49c16.319-.3 17.806 9.65 17.747 13.65-.015.91.565 1.36 1.357.89 5.931-3.52 5.539-10.16 4.99-13.21a3.827 3.827 0 0 1 .727-2.84zm-1.838-4.49a3.324 3.324 0 0 1-4.082.6 3.142 3.142 0 0 1-1.23-4.34 2.765 2.765 0 0 1 .378-.51 3.337 3.337 0 0 1 4.083-.6 3.154 3.154 0 0 1 1.23 4.35 3.385 3.385 0 0 1-.379.5zM42.908 76.22c2.927-1.73 4.621-4.92 5.417-6.83.351-.84-.13-1.25-.91-.77a14.6 14.6 0 0 0-5.467 6.75c-.351.84.168 1.32.96.85zm-5.826.63c4.469-2.42 6.873-7.52 7.845-10.09.322-.85-.164-1.26-.957-.8-4.693 2.77-6.985 7.55-7.9 10.01-.318.85.204 1.32 1.012.88zm-1.049-5.93c2.927-1.73 4.62-4.91 5.416-6.82.352-.84-.13-1.25-.91-.77a14.615 14.615 0 0 0-5.467 6.75c-.351.84.172 1.31.961.84z" fill="#fff" fill-rule="evenodd"></path>
  </symbol>
  <symbol xmlns="http://www.w3.org/2000/svg" viewBox="0 0 100.438 116" id="icon2">
    <path d="M.004 29L50.226 0l50.221 29v58l-50.221 29L.004 87V29z" fill-rule="evenodd" fill="#fe8682"></path>
    <path d="M5.026 32l45.2-26 45.2 26v52l-45.2 26-45.2-26V32z" fill="#fc635e" fill-rule="evenodd"></path>
    <path d="M56.156 74.94a1.961 1.961 0 0 1-.769-1.28l-.26-1.66h-8.3l-.262 1.66a1.953 1.953 0 0 1-.767 1.28c-.694.51-1.243.95-.694 1.03.528.07 5.508 0 5.876 0s5.347.07 5.876 0c.542-.08-.006-.52-.7-1.03zM41.619 61.63c2.219-.02 2.495-.55 3.218-2.78 1.334-3.52 7.341.92 3.619 2.46s-9.056.34-6.837.32zM64.37 38.45c-1.077-.86-2.86-.44-3.984.96L49.003 55.59c-1.124 1.39-1.118 1.13-.042 1.99s.817.93 1.941-.46l13.382-14.57c1.124-1.39 1.166-3.23.086-4.1zm-2.927 1.94a6.729 6.729 0 0 0-.721-.64 2.591 2.591 0 0 1 2.466-1.11 3.416 3.416 0 0 0-1.745 1.75zm7.975 3.53h-5.006l-2.211 2.41h6.415v19.25H33.334V46.33h20.524l1.7-2.41H32.531a1.606 1.606 0 0 0-1.6 1.61v23.26a1.6 1.6 0 0 0 1.6 1.6h36.887a1.6 1.6 0 0 0 1.6-1.6V45.53a1.606 1.606 0 0 0-1.6-1.61z" fill="#fff" fill-rule="evenodd"></path>
  </symbol>
  <symbol xmlns="http://www.w3.org/2000/svg" viewBox="0 0 100.375 116" id="icon3">
    <path d="M-.006 29L50.178 0l50.185 29v58l-50.185 29L-.006 87V29z" fill-rule="evenodd" fill="#fe8682"></path>
    <path d="M5.011 32L50.176 6l45.166 26v52l-45.166 26L5.011 84V32z" fill="#fc635e" fill-rule="evenodd"></path>
    <path d="M64.704 39h-29.21a3.9 3.9 0 0 0-3.895 3.89v29.22A3.91 3.91 0 0 0 35.494 76h29.21a3.909 3.909 0 0 0 3.89-3.89V42.89a3.9 3.9 0 0 0-3.89-3.89zm-28.885 5.27h28.549v19.47H35.819V44.27zm30.1 26.49H45.985a3.323 3.323 0 0 1-6.469 0H34.27v-1.54h5.242a3.325 3.325 0 0 1 6.477 0H65.92v1.54zM53.5 47.09h3.981v13.36H53.5V47.09zm-10.986 5.14h3.98v8.22h-3.983v-8.22zm5.493-2.18h3.987v10.4H48.01v-10.4z" fill="#fff" fill-rule="evenodd"></path>
  </symbol>
  <symbol xmlns="http://www.w3.org/2000/svg" viewBox="0 0 100.13 116" id="icon4">
    <path d="M-.015 29L50.061 0l50.079 29v58l-50.079 29L-.015 87V29z" fill-rule="evenodd" fill="#fe8682"></path>
    <path d="M4.993 32L50.061 6 95.13 32v52l-45.069 26L4.993 84V32z" fill="#fc635e" fill-rule="evenodd"></path>
    <path d="M39.993 49.66l-5.206.01s-4.116.18-4.109 4.17v.11a3.286 3.286 0 0 0 .008 5.43c.006.49.167 4.55 3.956 4.54 0 0 1.569.06 1.433 2.57l.016 9.92A1.311 1.311 0 0 0 37.437 78s4.657-.67 2.34-5.43c1.743-1.81-.749-2.86.243-5.82a7.463 7.463 0 0 0 1.341-2.92l.06-12.67a1.267 1.267 0 0 0-1.428-1.5zm23.857 2.55l-.02-11.57c0-1.51-1.28.17-1.28.17-6.04 9.43-18.544 8.69-18.544 8.69a1.077 1.077 0 0 0-1.239 1.27l.021 10.93a1.265 1.265 0 0 0 1.321 1.25c13.971-.02 18.751 8.81 18.751 8.81s1.11 1.37 1.03-.05l-.02-11.55a4.5 4.5 0 0 0-.02-7.95zm-13.756-1.55s8.216-1.15 12.2-7.33c-.004 0-1.544 7.22-12.2 7.33zm15.286 6.81a5.98 5.98 0 0 0-1.16-4.29s2.13 1.24 1.16 4.29z" fill="#fff" fill-rule="evenodd"></path>
  </symbol>
</svg>