<svg 
 xmlns="http://www.w3.org/2000/svg"
 xmlns:xlink="http://www.w3.org/1999/xlink"
 width="31px" height="31px">
<path fill-rule="evenodd"  fill="rgb(252, 99, 94)"
 d="M15.504,30.999 C6.958,30.999 0.004,24.046 0.004,15.500 C0.004,6.954 6.958,0.001 15.504,0.001 C24.054,0.001 31.010,6.954 31.010,15.500 C31.010,24.046 24.054,30.999 15.504,30.999 ZM15.504,1.422 C7.742,1.422 1.427,7.738 1.427,15.500 C1.427,23.263 7.742,29.577 15.504,29.577 C23.270,29.577 29.587,23.263 29.587,15.500 C29.587,7.738 23.270,1.422 15.504,1.422 ZM9.235,25.644 L15.304,15.445 L9.235,5.562 L26.633,15.602 L9.235,25.644 Z"/>
</svg>