<svg 
 xmlns="http://www.w3.org/2000/svg"
 xmlns:xlink="http://www.w3.org/1999/xlink"
 width="31px" height="31px">
<path fill-rule="evenodd"  fill="rgb(252, 99, 94)"
 d="M15.495,30.999 C24.042,30.999 30.995,24.046 30.995,15.500 C30.995,6.954 24.042,0.001 15.495,0.001 C6.946,0.001 -0.010,6.954 -0.010,15.500 C-0.010,24.046 6.946,30.999 15.495,30.999 ZM15.495,1.422 C23.258,1.422 29.573,7.738 29.573,15.500 C29.573,23.263 23.258,29.577 15.495,29.577 C7.730,29.577 1.412,23.263 1.412,15.500 C1.412,7.738 7.730,1.422 15.495,1.422 ZM21.764,25.644 L15.696,15.445 L21.764,5.562 L4.367,15.602 L21.764,25.644 Z"/>
</svg>