<svg 
 xmlns="http://www.w3.org/2000/svg"
 xmlns:xlink="http://www.w3.org/1999/xlink"
 width="37px" height="37px">
<path fill-rule="evenodd"  fill="rgb(86, 86, 86)"
 d="M18.496,-0.000 C8.282,-0.000 -0.000,8.286 -0.000,18.506 C-0.000,28.726 8.282,37.013 18.496,37.013 C28.711,37.013 36.992,28.726 36.992,18.506 C36.992,8.284 28.711,-0.000 18.496,-0.000 ZM23.278,18.504 L20.246,18.506 L20.244,29.610 L16.085,29.610 L16.085,18.506 L13.310,18.506 L13.310,14.680 L16.085,14.678 L16.080,12.425 C16.080,9.301 16.926,7.403 20.600,7.403 L23.662,7.403 L23.662,11.231 L21.747,11.231 C20.316,11.231 20.246,11.765 20.246,12.762 L20.241,14.678 L23.682,14.678 L23.278,18.504 Z"/>
</svg>