<svg 
 xmlns="http://www.w3.org/2000/svg"
 xmlns:xlink="http://www.w3.org/1999/xlink"
 width="74px" height="86px">
<path fill-rule="evenodd"  fill="rgb(254, 134, 130)"
 d="M-0.005,21.501 L37.002,0.003 L74.009,21.501 L74.009,64.497 L37.002,85.996 L-0.005,64.497 L-0.005,21.501 Z"/>
<path fill-rule="evenodd"  fill="rgb(252, 99, 94)"
 d="M3.695,23.725 L37.002,4.450 L70.308,23.725 L70.308,62.273 L37.002,81.548 L3.695,62.273 L3.695,23.725 Z"/>
<path fill-rule="evenodd"  fill="rgb(255, 255, 255)"
 d="M54.005,43.711 L54.005,56.995 L38.218,56.995 L38.218,43.711 C38.218,33.688 40.649,28.005 49.150,28.005 L49.150,36.099 C45.507,36.099 45.507,36.825 45.507,41.174 L45.507,43.711 L54.005,43.711 ZM19.994,43.711 C19.994,33.688 22.427,28.005 30.929,28.005 L30.929,36.098 C27.285,36.098 27.285,36.824 27.285,41.173 L27.285,43.711 L35.791,43.711 L35.791,56.995 L19.994,56.995 L19.994,43.711 Z"/>
</svg>