<svg 
 xmlns="http://www.w3.org/2000/svg"
 xmlns:xlink="http://www.w3.org/1999/xlink"
 width="37px" height="37px">
<path fill-rule="evenodd"  fill="rgb(86, 86, 86)"
 d="M18.496,-0.000 C8.282,-0.000 -0.000,8.286 -0.000,18.506 C-0.000,28.726 8.282,37.013 18.496,37.013 C28.710,37.013 36.992,28.726 36.992,18.506 C36.992,8.284 28.710,-0.000 18.496,-0.000 ZM13.872,27.470 L9.248,27.470 L9.248,11.277 L13.872,11.277 L13.872,27.470 ZM11.703,10.284 C10.506,10.284 9.537,9.313 9.537,8.114 C9.537,6.917 10.508,5.945 11.703,5.945 C12.901,5.947 13.872,6.919 13.872,8.114 C13.872,9.313 12.901,10.284 11.703,10.284 ZM30.056,27.470 L25.432,27.470 L25.432,17.458 C25.432,16.285 25.098,15.464 23.657,15.464 C21.269,15.464 20.808,17.458 20.808,17.458 L20.808,27.470 L16.184,27.470 L16.184,11.277 L20.808,11.277 L20.808,12.824 C21.470,12.318 23.120,11.279 25.432,11.279 C26.931,11.279 30.056,12.177 30.056,17.599 L30.056,27.470 Z"/>
</svg>