<svg width="0" height="0" class="hidden">
  <symbol xmlns="http://www.w3.org/2000/svg" viewBox="0 0 37 37" id="facebook">
    <path fill-rule="evenodd" d="M18.496 0C8.282 0 0 8.286 0 18.506s8.282 18.507 18.496 18.507c10.215 0 18.496-8.287 18.496-18.507C36.992 8.284 28.711 0 18.496 0zm4.782 18.504l-3.032.002-.002 11.104h-4.159V18.506H13.31V14.68l2.775-.002-.005-2.253c0-3.124.846-5.022 4.52-5.022h3.062v3.828h-1.915c-1.431 0-1.501.534-1.501 1.531l-.005 1.916h3.441l-.404 3.826z"></path>
  </symbol>
  <symbol xmlns="http://www.w3.org/2000/svg" viewBox="0 0 37 37" id="linkedin">
    <path fill-rule="evenodd" d="M18.496 0C8.282 0 0 8.286 0 18.506s8.282 18.507 18.496 18.507c10.214 0 18.496-8.287 18.496-18.507C36.992 8.284 28.71 0 18.496 0zm-4.624 27.47H9.248V11.277h4.624V27.47zm-2.169-17.186a2.169 2.169 0 010-4.339 2.17 2.17 0 010 4.339zM30.056 27.47h-4.624V17.458c0-1.173-.334-1.994-1.775-1.994-2.388 0-2.849 1.994-2.849 1.994V27.47h-4.624V11.277h4.624v1.547a7.738 7.738 0 014.624-1.545c1.499 0 4.624.898 4.624 6.32v9.871z"></path>
  </symbol>
  <symbol xmlns="http://www.w3.org/2000/svg" viewBox="0 0 37 37" id="twitter">
    <path fill-rule="evenodd"  d="M18.501 0C8.283 0 .001 8.282.001 18.5c0 10.217 8.282 18.5 18.5 18.5C28.718 37 37 28.717 37 18.5 37 8.282 28.718 0 18.501 0zm7.523 15.155c.008.156.01.314.01.471 0 4.816-3.665 10.368-10.366 10.368-2.057 0-3.973-.604-5.585-1.638a7.306 7.306 0 005.395-1.509 3.645 3.645 0 01-3.404-2.529 3.683 3.683 0 001.645-.063 3.646 3.646 0 01-2.923-3.573l.001-.045c.49.273 1.053.436 1.65.456a3.644 3.644 0 01-1.128-4.865 10.35 10.35 0 007.51 3.807 3.643 3.643 0 016.208-3.323 7.292 7.292 0 002.314-.885 3.655 3.655 0 01-1.602 2.016 7.273 7.273 0 002.093-.573 7.389 7.389 0 01-1.818 1.885z"></path>
  </symbol>
</svg>