<svg 
 xmlns="http://www.w3.org/2000/svg"
 xmlns:xlink="http://www.w3.org/1999/xlink"
 width="37px" height="37px">
<path fill-rule="evenodd"  fill="rgb(86, 86, 86)"
 d="M18.501,-0.000 C8.283,-0.000 0.001,8.282 0.001,18.500 C0.001,28.717 8.283,37.000 18.501,37.000 C28.718,37.000 37.000,28.717 37.000,18.500 C37.000,8.282 28.718,-0.000 18.501,-0.000 ZM26.024,15.155 C26.032,15.311 26.034,15.469 26.034,15.626 C26.034,20.442 22.369,25.994 15.668,25.994 C13.611,25.994 11.695,25.390 10.083,24.356 C10.368,24.391 10.658,24.408 10.952,24.408 C12.659,24.408 14.230,23.826 15.478,22.847 C13.883,22.818 12.537,21.765 12.074,20.318 C12.296,20.360 12.525,20.383 12.759,20.383 C13.091,20.383 13.413,20.339 13.719,20.255 C12.052,19.920 10.796,18.448 10.796,16.682 C10.796,16.667 10.796,16.651 10.797,16.637 C11.287,16.910 11.850,17.073 12.447,17.093 C11.469,16.439 10.826,15.323 10.826,14.059 C10.826,13.392 11.005,12.767 11.319,12.228 C13.116,14.432 15.801,15.882 18.829,16.035 C18.766,15.768 18.735,15.490 18.735,15.205 C18.735,13.192 20.366,11.561 22.378,11.561 C23.426,11.561 24.373,12.004 25.037,12.712 C25.868,12.548 26.647,12.245 27.351,11.827 C27.079,12.678 26.501,13.392 25.749,13.843 C26.486,13.755 27.189,13.560 27.842,13.270 C27.354,14.000 26.736,14.642 26.024,15.155 Z"/>
</svg>